<?xml version="1.0" ?><!DOCTYPE svg  PUBLIC '-//W3C//DTD SVG 1.1//EN'  'http://www.w3.org/Graphics/SVG/1.1/DTD/svg11.dtd'><svg height="6.82666in" style="shape-rendering:geometricPrecision; text-rendering:geometricPrecision; image-rendering:optimizeQuality; fill-rule:evenodd; clip-rule:evenodd" viewBox="0 0 6.82666 6.82666" width="6.82666in" xml:space="preserve" xmlns="http://www.w3.org/2000/svg" xmlns:xlink="http://www.w3.org/1999/xlink"><defs><style type="text/css">
   <![CDATA[
    .fil2 {fill:none}
    .fil1 {fill:black}
    .fil0 {fill:black;fill-rule:nonzero}
   ]]>
  </style></defs><g id="Layer_x0020_1"><path class="fil0" d="M1.06534 1.41237l4.69598 0c0.0583465,0 0.111358,0.0238425 0.149764,0.062248 0.0384055,0.0384055 0.062248,0.0914173 0.062248,0.149764l0 3.07905c0,0.0583386 -0.0238425,0.111358 -0.062248,0.14976 -0.0384055,0.0384055 -0.0914252,0.062248 -0.149764,0.062248l-4.69598 0c-0.0583386,0 -0.111358,-0.0238425 -0.149764,-0.062248 -0.0384055,-0.0384016 -0.062248,-0.0914213 -0.062248,-0.14976l0 -3.07905c0,-0.0583465 0.0238425,-0.111358 0.062248,-0.149764 0.0384055,-0.0384055 0.0914173,-0.062248 0.149764,-0.062248zm0.104654 0.316665l0 2.86974 4.48667 0 0 -2.86974 -4.48667 0z"/><path class="fil0" d="M3.83263 4.99544l0.15189 0.378843c0,0.0220906 -0.0179094,0.04 -0.04,0.04l-1.06237 0c-0.0220906,0 -0.04,-0.0179094 -0.04,-0.04l0.15189 -0.378843 0.838591 0z"/><path class="fil1" d="M2.26511 5.36448l2.29643 0c0.0662441,0 0.119996,0.053752 0.119996,0.119996 0,0.0662441 -0.053752,0.119996 -0.119996,0.119996l-2.29643 0c-0.0662441,0 -0.119996,-0.053752 -0.119996,-0.119996 0,-0.0662441 0.053752,-0.119996 0.119996,-0.119996z"/><g id="_306028696"><path class="fil0" d="M2.69031 2.61591l0.00327953 0.0154646 0.0133346 0.0628898 0.218146 1.02869 0.0341457 -0.00723622 -0.0342047 0.00725197c0.0035315,0.0166457 0.0183701,0.0279882 0.0347677,0.0277126l1.5852 0c0.0160118,0 0.0295157,-0.0107677 0.0336575,-0.0254528l0.350748 -1.06358 2.3622e-005 7.87402e-006c0.00604724,-0.0183346 -0.00392126,-0.0381102 -0.0222559,-0.0441575 -0.00469685,-0.00154724 -0.00948819,-0.00204331 -0.0141181,-0.00161811l-1.06568 2.75591e-005 -0.0819724 0 -0.942815 2.3622e-005 -0.101248 -0.477465c-0.0055,-0.0259291 -0.0271496,-0.0456299 -0.0541457,-0.0456299l-0.696724 0c-0.0303465,0 -0.0549606,0.0246142 -0.0549606,0.0549606 0,0.0303465 0.0246142,0.0549606 0.0549606,0.0549606l0.65226 0 0.0876142 0.41315 -7.87402e-006 0z" id="_306029488"/><path class="fil0" d="M4.21 3.94121c0.0405591,0 0.0772795,0.0164488 0.103858,0.0430276 0.0265787,0.0265748 0.0430236,0.0633071 0.0430236,0.103854 0,0.0405551 -0.0164449,0.0772756 -0.0430236,0.103862 -0.0265787,0.0265787 -0.0633071,0.0430236 -0.103858,0.0430236 -0.0405551,0 -0.0772756,-0.0164409 -0.103858,-0.0430276 -0.0265866,-0.0265787 -0.0430276,-0.0633031 -0.0430276,-0.103858 0,-0.0405512 0.0164409,-0.0772795 0.0430276,-0.103854 0.0265748,-0.0265787 0.0633071,-0.0430276 0.103858,-0.0430276z" id="_306028888"/><path class="fil0" d="M3.33446 3.94121c0.0405512,0 0.0772795,0.0164488 0.103858,0.0430276 0.0265748,0.0265748 0.0430236,0.0633071 0.0430236,0.103854 0,0.0405551 -0.0164488,0.0772756 -0.0430236,0.103862 -0.0265787,0.0265787 -0.0633071,0.0430236 -0.103858,0.0430236 -0.0405551,0 -0.0772795,-0.0164409 -0.103858,-0.0430276 -0.0265827,-0.0265787 -0.0430276,-0.0632992 -0.0430276,-0.103858 0,-0.0405472 0.0164488,-0.0772795 0.0430236,-0.103854 0.0265866,-0.0265787 0.063311,-0.0430276 0.103862,-0.0430276z" id="_306028384"/></g></g><rect class="fil2" height="6.82666" width="6.82666"/></svg>