<?xml version="1.0" encoding="utf-8"?>
<!-- Generator: Adobe Illustrator 16.0.0, SVG Export Plug-In . SVG Version: 6.00 Build 0)  -->
<!DOCTYPE svg PUBLIC "-//W3C//DTD SVG 1.1//EN" "http://www.w3.org/Graphics/SVG/1.1/DTD/svg11.dtd">
<svg version="1.1" id="Layer_1" xmlns="http://www.w3.org/2000/svg" xmlns:xlink="http://www.w3.org/1999/xlink" x="0px" y="0px"
	 width="872px" height="602px" viewBox="0 0 872 602" enable-background="new 0 0 872 602" xml:space="preserve">
<g>
	<polyline fill="none" stroke="#43C1C7" stroke-width="1.4479" stroke-miterlimit="10" points="17.31,566.449 138.846,391.74 
		208.344,406.571 361.819,296.532 444.348,342.865 545.699,216.898 677.457,216.898 845.41,134.37 	"/>
	<circle fill="#43C1C7" cx="140.848" cy="389.75" r="9.241"/>
	<circle fill="#43C1C7" cx="206.343" cy="408.233" r="9.241"/>
	<circle fill="#43C1C7" cx="442.899" cy="343.418" r="9.241"/>
	<circle fill="#43C1C7" cx="680.352" cy="214.897" r="9.241"/>
	<circle fill="#43C1C7" cx="845.41" cy="134.37" r="9.241"/>
</g>
<g>
	<polygon fill="#B8AAD2" points="547.838,490.002 494.158,459.734 566.125,419.061 617.833,449.328 	"/>
	<g>
		<polygon fill="#49C1C3" points="723.297,440.449 805.589,394.597 752.146,361.019 626.344,352.506 626.344,386.084 
			645.734,396.477 		"/>
		<polygon fill="#4361AC" points="723.297,437.363 805.589,391.511 752.146,357.932 626.344,349.42 626.344,382.998 
			645.734,393.391 		"/>
		<polygon fill="#C5C5D7" points="731.811,423.199 731.811,277.061 753.092,265.709 753.092,410.903 		"/>
		<polygon fill="#FFFFFF" points="710.055,265.709 731.811,277.061 731.811,423.199 710.055,410.43 		"/>
		<polygon fill="#C9E7F8" points="731.811,277.061 753.092,265.709 730.391,254.832 710.055,265.709 		"/>
		<polygon fill="#C5C5D7" points="699.649,404.282 699.649,295.684 710.055,289.571 710.055,410.43 		"/>
		<polygon fill="#FFFFFF" points="699.649,295.684 679.313,282.735 679.313,393.391 699.649,404.282 		"/>
		<polygon fill="#C9E7F8" points="699.649,295.684 679.313,282.735 699.649,271.148 710.055,277.061 710.055,289.571 		"/>
		<polygon fill="#C5C5D7" points="669.383,311.571 669.383,387.492 679.313,393.391 679.313,306.379 		"/>
		<polygon fill="#FFFFFF" points="669.383,387.492 647.036,374.959 647.036,299.525 669.383,311.571 		"/>
		<polygon fill="#C9E7F8" points="647.036,299.767 666.545,287.82 679.313,294.503 679.313,306.379 669.383,311.571 		"/>
		<polygon fill="#C5C5D7" points="636.928,320.81 636.928,369.786 646.858,375.121 646.858,317.361 		"/>
		<polygon fill="#FFFFFF" points="636.928,369.786 614.581,356.5 614.581,311.395 636.928,320.81 		"/>
		<polygon fill="#C9E7F8" points="614.581,311.555 633.381,303.624 646.858,309.479 646.858,317.361 636.928,320.81 		"/>
	</g>
	<polygon fill="#E5EDF8" points="637.933,414.213 419.906,288.807 419.906,77.479 637.933,201.391 	"/>
	<polygon fill="#ECBBD6" points="528.92,408.064 528.92,400.023 568.647,374.959 569.593,382.762 	"/>
	<path fill="#4159A7" d="M409.738,274.223c0,0,0.637-32.16-26.013-40.2l-21.282,11.823c0,0,29.795,0.946,29.322,36.89
		L409.738,274.223z"/>
	<path fill="#384199" d="M391.766,282.735L346.6,329.557l-48.477-63.374l64.32-20.337
		C362.443,245.846,393.658,246.792,391.766,282.735z"/>
	
		<ellipse transform="matrix(0.8945 -0.4471 0.4471 0.8945 -99.2766 175.8587)" fill="#C9E7F8" cx="322.928" cy="298.252" rx="23.919" ry="39.961"/>
	<path fill="#FFFFFF" d="M328.87,306.379l18.763-10.977c0,0-7.037-16.839-13.501-22.639l-18.511,14.938L328.87,306.379z"/>
	<polygon fill="#6E64AB" points="377.104,319.625 377.104,298.252 382.716,292.117 382.716,319.625 	"/>
	<polygon fill="#B8AAD2" points="382.716,319.625 396.494,311.585 396.494,280.496 391.766,282.735 382.716,292.117 	"/>
	<polygon fill="#3A459B" points="634.386,417.523 416.359,292.117 416.359,80.789 634.386,204.699 	"/>
	<polygon fill="#4080C2" points="454.668,181.998 454.668,113.895 382.716,70.857 382.716,139.906 	"/>
	<polygon fill="#8AA3D4" points="382.716,80.789 454.668,123.354 454.668,113.895 382.716,70.857 	"/>
	<polyline fill="none" stroke="#43C1C7" stroke-width="1.4479" stroke-miterlimit="10" points="446.155,161.662 430.074,137.068 
		418.692,140.852 388.896,98.117 	"/>
	<polyline fill="none" stroke="#43C1C7" stroke-width="1.4479" stroke-miterlimit="10" points="388.35,105.789 388.35,97.513 
		396.545,99.234 	"/>
	<polygon fill="#5576B9" points="528.92,400.023 456.561,357.932 456.561,366.918 528.92,408.064 	"/>
	<polygon fill="#FFFFFF" points="456.561,357.932 491.908,335.572 564.707,377.444 528.92,400.023 	"/>
	<polygon fill="#FFFFFF" points="547.838,485.863 494.158,455.596 566.125,414.922 617.833,445.19 	"/>
	<polygon fill="#6B80BE" points="604.874,263.482 604.874,267.227 561.836,242.199 561.836,238.182 	"/>
	<polygon fill="#6B80BE" points="581.662,328.141 581.662,331.885 538.624,306.858 538.624,302.84 	"/>
	<polygon fill="#49C1C3" points="590.259,270.989 590.063,274.807 576.451,266.891 576.451,262.872 	"/>
	<polygon fill="#6B80BE" points="570.302,258.241 570.302,262.872 515.797,231.523 515.797,227.505 	"/>
	<polygon fill="#49C1C3" points="591.099,285.543 590.902,289.359 577.291,281.445 577.291,277.426 	"/>
	<polygon fill="#6B80BE" points="571.142,272.795 571.142,277.426 516.636,246.077 516.636,242.059 	"/>
	<polygon fill="#49C1C3" points="591.938,300.098 591.741,303.914 578.13,295.998 578.13,291.979 	"/>
	<polygon fill="#6B80BE" points="571.981,287.349 571.981,291.979 517.476,260.631 517.476,256.611 	"/>
	<polygon fill="#49C1C3" points="592.777,314.65 592.581,318.468 578.97,310.553 578.97,306.533 	"/>
	<polygon fill="#6B80BE" points="572.82,301.902 572.82,306.533 518.315,275.185 518.315,271.166 	"/>
	<ellipse fill="#38449A" cx="563.609" cy="445.781" rx="25.941" ry="16.672"/>
	<path fill="#90D2CB" d="M553.867,430.151l9.032,15.63l19.747-12.65C582.646,433.131,567.702,426.226,553.867,430.151z"/>
	<path fill="#CDCCDB" d="M634.267,156.111l-49.659-28.732c0,0-10.641-8.512-10.641-25.539c0-17.025,17.381-7.094,17.381-7.094
		s3.901-14.898,18.444-5.676s19.509,29.001,19.509,29.001s17.735,3.159,17.735,31.417
		C647.036,160.367,634.267,156.111,634.267,156.111z"/>
	<polygon fill="#D0D0DD" points="560.144,105.936 577.271,93.086 645.274,154.877 629.045,166.953 	"/>
	<polygon fill="#EF5E5E" points="499.124,248.446 499.124,242.063 469.683,225.746 469.683,231.776 	"/>
	<path fill="#F16C69" d="M499.124,242.063c0,0-1.321-40.811-29.441-54.271v37.954L499.124,242.063z"/>
	<path fill="#FDDE8F" d="M494.512,252.703c0,0,1.419,18.667-8.158,22.104l-19.863-37.711L494.512,252.703z"/>
	<path fill="#FFFFFF" d="M486.354,274.807c0,0-43.243,17.271-50.887-40.784c-6.85-52.024,31.023-37.718,31.023-37.718v39.68
		L486.354,274.807z"/>
	<path fill="#ECD08A" d="M486.354,280.496v-5.689c0,0,9.814-7.988,8.158-22.104l0.189,16.137
		C494.701,268.84,492.289,277.78,486.354,280.496z"/>
	<path fill="#EDE7F2" d="M486.354,274.097v6.399c0,0-5.815,4.885-19.863,2.239v-5.675
		C466.49,277.061,482.408,278.669,486.354,274.097z"/>
	
		<ellipse transform="matrix(0.8945 -0.447 0.447 0.8945 -98.1171 175.5511)" fill="#384199" cx="322.93" cy="295.683" rx="6.603" ry="11.031"/>
	<path fill="#FFFFFF" d="M617.95,168.283l-49.658-28.73c0,0-10.642-8.514-10.642-25.539c0-17.026,17.38-7.095,17.38-7.095
		s3.902-14.899,18.445-5.676c14.543,9.223,19.509,29.001,19.509,29.001s17.735,3.158,17.735,31.418
		C630.72,172.54,617.95,168.283,617.95,168.283z"/>
	<polygon fill="#BFBEBE" points="557.324,382.289 565.416,377.444 491.908,335.572 484.082,340.522 	"/>
	<g>
		<polygon fill="#F6921E" points="491.985,277.891 516.571,309.954 507.44,319.275 483.453,289.319 		"/>
		
			<ellipse transform="matrix(0.6808 -0.7324 0.7324 0.6808 -67.063 475.2693)" fill="#F6921E" cx="511.801" cy="314.584" rx="6.405" ry="4.635"/>
		<g id="XMLID_17204_">
			<g id="XMLID_17205_">
				<g id="XMLID_17231_">
					<path id="XMLID_17232_" fill="#3F78B9" d="M447.113,211.459l0.246-0.169c5.584-3.778,13.592-3.553,22.483,1.579
						c16.862,9.738,30.548,33.424,30.548,52.9c0,9.812-3.459,16.674-9.062,19.851l-8.834,5.997c0.075-0.226,0.864-2.067,2.03-4.061
						c1.221-2.067,2.819-4.286,4.492-4.982h0.02c0.978-2.912,1.523-6.315,1.523-10.188c0-19.477-13.668-43.162-30.549-52.9
						c-4.117-2.388-8.027-3.703-11.6-4.06c-1.41,0.488-3.402,1.015-6.129,1.579c-1.391,0.281-2.951,0.582-4.735,0.883
						L447.113,211.459z"/>
				</g>
				<g id="XMLID_17226_">
					<path id="XMLID_17227_" fill="#97CEEF" d="M429.482,237.119c0,19.477,13.667,43.162,30.529,52.9
						c13.535,7.802,24.982,4.285,29.006-7.445h0.02c0.978-2.912,1.523-6.315,1.523-10.188c0-19.477-13.668-43.162-30.549-52.9
						c-4.192-2.426-8.178-3.76-11.806-4.079C437.189,214.393,429.463,222.476,429.482,237.119z M433.223,237.119
						c0-10.846,4.55-17.501,12.201-18.009c0.32-0.019,0.64-0.038,0.959-0.038c3.534,0,7.594,1.279,11.749,3.666
						c15.81,9.137,28.669,31.395,28.669,49.648c0,4.605-0.81,8.44-2.352,11.393c-0.338,0.657-0.715,1.296-1.127,1.86
						c-2.257,3.103-5.547,4.794-9.663,4.794c-3.534,0-7.613-1.26-11.768-3.667C446.099,277.65,433.242,255.373,433.223,237.119z"/>
				</g>
				<g id="XMLID_17224_">
					<path id="XMLID_17225_" fill="#2C6EB5" d="M433.223,237.119c0.02,18.254,12.876,40.531,28.669,49.647
						c4.154,2.407,8.233,3.667,11.768,3.667c4.116,0,7.406-1.691,9.663-4.794c0.412-0.564,0.789-1.203,1.127-1.86
						c-0.32,0.018-0.639,0.035-0.957,0.035c-3.555,0-7.614-1.258-11.77-3.664c-15.81-9.117-28.668-31.395-28.668-49.647
						c0-4.606,0.809-8.441,2.369-11.393C437.772,219.618,433.223,226.273,433.223,237.119z"/>
				</g>
				<g id="XMLID_17222_">
					<path id="XMLID_17223_" fill="none" d="M433.223,237.119c0.02,18.254,12.876,40.531,28.669,49.647
						c4.154,2.407,8.233,3.667,11.768,3.667c4.116,0,7.406-1.691,9.663-4.794c0.412-0.564,0.789-1.203,1.127-1.86
						c-0.32,0.018-0.639,0.035-0.957,0.035c-3.555,0-7.614-1.258-11.77-3.664c-15.81-9.117-28.668-31.395-28.668-49.647
						c0-4.606,0.809-8.441,2.369-11.393C437.772,219.618,433.223,226.273,433.223,237.119z"/>
				</g>
				<g id="XMLID_17206_">
					<defs>
						<path id="XMLID_17208_" d="M473.658,290.438c8.23-0.001,13.145-6.749,13.145-18.05c0-18.25-12.857-40.521-28.664-49.646
							c-4.156-2.399-8.224-3.666-11.762-3.666c-8.229,0-13.146,6.746-13.146,18.049c0.002,18.251,12.863,40.523,28.668,49.646
							c4.155,2.398,8.221,3.667,11.758,3.667C473.656,290.438,473.656,290.438,473.658,290.438z"/>
					</defs>
					<clipPath id="XMLID_2_">
						<use xlink:href="#XMLID_17208_"  overflow="visible"/>
					</clipPath>
					<g id="XMLID_17220_" opacity="0.3" clip-path="url(#XMLID_2_)">
						<path id="XMLID_17221_" fill="#80CED2" d="M477.416,287.134c8.232-0.001,13.146-6.749,13.146-18.05
							c0-18.251-12.86-40.522-28.666-49.646c-4.154-2.399-8.222-3.666-11.76-3.666c-8.232,0-13.146,6.745-13.146,18.047
							c0.002,18.252,12.862,40.524,28.666,49.648C469.813,285.865,473.878,287.134,477.416,287.134L477.416,287.134z"/>
					</g>
					<g id="XMLID_17209_" clip-path="url(#XMLID_2_)">
						<defs>
							<path id="XMLID_17211_" d="M477.416,287.134c8.232-0.001,13.146-6.749,13.146-18.05c0-18.251-12.86-40.522-28.666-49.646
								c-4.154-2.399-8.222-3.666-11.76-3.666c-8.232,0-13.146,6.745-13.146,18.047c0.002,18.252,12.862,40.524,28.666,49.648
								C469.813,285.865,473.878,287.134,477.416,287.134L477.416,287.134z"/>
						</defs>
						<clipPath id="XMLID_3_">
							<use xlink:href="#XMLID_17211_"  overflow="visible"/>
						</clipPath>
						<g id="XMLID_17212_" clip-path="url(#XMLID_3_)">
							<g id="XMLID_17213_">
								<defs>
									<path id="XMLID_17214_" d="M488.934,253.656l7.645-4.408l-61.09-35.27l-7.643,4.404L488.934,253.656z M419.961,237.262
										l84.697,48.9l0.006-17.635l-83.996-48.492L419.961,237.262z M419.758,245.383l76.361,44.089l2.7-2.206l-76.37-44.088
										L419.758,245.383z"/>
								</defs>
								<clipPath id="XMLID_4_">
									<use xlink:href="#XMLID_17214_"  overflow="visible"/>
								</clipPath>
								<polygon id="XMLID_17219_" clip-path="url(#XMLID_4_)" fill="#FFFFFF" points="427.004,220.242 426.63,220.035 
									419.961,220.035 419.961,232.908 								"/>
								<polygon id="XMLID_17218_" clip-path="url(#XMLID_4_)" fill="#FFFFFF" points="427.846,218.726 430.484,213.979 
									427.846,213.979 								"/>
							</g>
						</g>
					</g>
				</g>
			</g>
		</g>
	</g>
	<circle fill="#3A459B" cx="731.574" cy="294.19" r="4.256"/>
	<circle fill="#3A459B" cx="699.649" cy="331.885" r="4.257"/>
	<circle fill="#3A459B" cx="669.382" cy="331.885" r="4.256"/>
	<polyline fill="none" stroke="#3A459B" stroke-width="0.7239" stroke-miterlimit="10" points="731.574,294.19 699.649,331.885 
		669.383,331.885 636.928,343.509 	"/>
	<polygon fill="#E5EDF8" points="416.359,80.789 419.906,77.479 437.548,87.504 434.638,91.177 	"/>
	<polygon fill="#E5EDF8" points="634.386,417.523 637.933,414.213 637.933,393.391 634.386,396.979 	"/>
	<polygon fill="#49C1C3" points="805.589,391.511 805.589,394.597 793.444,401.363 795.024,397.396 	"/>
	<polygon fill="#A7A3D0" points="514.73,455.004 517.568,453.23 539.441,466.236 536.131,468.246 	"/>
	<polygon fill="#A7A3D0" points="520.523,451.574 532.938,459.26 535.54,457.486 523.361,449.803 	"/>
	<polygon fill="#A7A3D0" points="535.54,461.508 557.887,475.104 560.605,473.213 538.378,459.734 	"/>
</g>
<path fill="#FFFFFF" d="M492.445,38.245c-1.693,0.743-3.497,1.235-5.377,1.474c1.934-1.154,3.41-2.97,4.105-5.158
	c-1.805,1.076-3.796,1.835-5.919,2.259c-1.712-1.824-4.154-2.954-6.817-2.954c-5.167,0-9.327,4.194-9.327,9.336
	c0,0.739,0.063,1.451,0.217,2.128c-7.76-0.379-14.626-4.098-19.237-9.762c-0.807,1.396-1.278,2.997-1.278,4.717
	c0,3.232,1.665,6.099,4.146,7.757c-1.5-0.028-2.971-0.464-4.217-1.149c0,0.028,0,0.064,0,0.104c0,4.534,3.235,8.302,7.479,9.17
	c-0.761,0.207-1.588,0.307-2.447,0.307c-0.598,0-1.201-0.033-1.768-0.158c1.21,3.695,4.641,6.412,8.721,6.501
	c-3.176,2.483-7.206,3.981-11.572,3.981c-0.766,0-1.498-0.035-2.232-0.129c4.134,2.666,9.033,4.189,14.316,4.189
	c17.176,0,26.566-14.229,26.566-26.561c0-0.412-0.015-0.811-0.035-1.206C489.619,41.776,491.177,40.135,492.445,38.245z"/>
<g>
	<circle fill="#FFFFFF" cx="711.363" cy="143.611" r="24.77"/>
	<path fill="#3D5A98" d="M717.589,144.58h-4.42v16.191h-6.694V144.58h-3.186v-5.689h3.186v-3.683c0-2.634,1.25-6.756,6.755-6.756
		l4.961,0.021v5.523h-3.6c-0.59,0-1.422,0.295-1.422,1.551v3.349h5.006L717.589,144.58z"/>
</g>
<g>
	<path fill="#FFFFFF" d="M393.375,375.186h-34.813c-2.124,0-3.845,1.722-3.845,3.846v34.814c0,2.123,1.721,3.844,3.845,3.844h34.813
		c2.123,0,3.846-1.721,3.846-3.844v-34.814C397.221,376.907,395.498,375.186,393.375,375.186z"/>
	<path fill="#0177B6" d="M369.84,408.276c0,0.474-0.385,0.857-0.857,0.857h-3.65c-0.474,0-0.857-0.384-0.857-0.857v-15.3
		c0-0.475,0.384-0.858,0.857-0.858h3.65c0.473,0,0.857,0.384,0.857,0.858V408.276z"/>
	<circle fill="#0177B6" cx="367.156" cy="387.208" r="3.468"/>
	<path fill="#0177B6" d="M388.914,408.346c0,0.436-0.354,0.788-0.787,0.788h-3.918c-0.436,0-0.789-0.353-0.789-0.788v-7.176
		c0-1.071,0.315-4.692-2.797-4.692c-2.414,0-2.903,2.478-3.002,3.591v8.277c0,0.436-0.353,0.788-0.789,0.788h-3.787
		c-0.436,0-0.789-0.353-0.789-0.788v-15.438c0-0.437,0.354-0.789,0.789-0.789h3.787c0.437,0,0.789,0.353,0.789,0.789v1.335
		c0.896-1.344,2.226-2.381,5.057-2.381c6.273,0,6.236,5.86,6.236,9.08V408.346L388.914,408.346z"/>
</g>
<g>
	<path fill="#FFFFFF" d="M532.19,74.677h-14.882c-6.048,0-10.968,4.921-10.968,10.968v14.881c0,6.049,4.92,10.969,10.968,10.969
		h14.882c6.047,0,10.968-4.92,10.968-10.969V85.645C543.158,79.598,538.237,74.677,532.19,74.677z M539.454,100.525
		c0,4.013-3.253,7.266-7.264,7.266h-14.882c-4.012,0-7.265-3.253-7.265-7.266V85.645c0-4.012,3.253-7.264,7.265-7.264h14.882
		c4.011,0,7.264,3.252,7.264,7.264V100.525L539.454,100.525z"/>
	<path fill="#FFFFFF" d="M524.749,83.564c-5.25,0-9.522,4.27-9.522,9.521c0,5.25,4.272,9.521,9.522,9.521
		c5.251,0,9.522-4.271,9.522-9.521C534.271,87.834,530,83.564,524.749,83.564z M524.749,98.904c-3.213,0-5.818-2.605-5.818-5.818
		s2.605-5.818,5.818-5.818c3.214,0,5.818,2.605,5.818,5.818S527.963,98.904,524.749,98.904z"/>
	<circle fill="#FFFFFF" cx="534.291" cy="83.635" r="2.281"/>
</g>
<g>
	<path fill="#FFFFFF" d="M473.129,403.145h-33.137c-6.502,0-11.771,5.271-11.771,11.771v16.564c0,6.503,5.27,11.772,11.771,11.772
		h33.137c6.501,0,11.771-5.27,11.771-11.772v-16.564C484.9,408.415,479.63,403.145,473.129,403.145z"/>
	<path fill="#ED2524" d="M465.168,424.004l-15.5,7.393c-0.412,0.197-0.889-0.103-0.889-0.561V415.59
		c0-0.465,0.488-0.766,0.902-0.556l15.5,7.854C465.643,423.122,465.634,423.783,465.168,424.004z"/>
</g>
<g>
	<polygon fill="#00ADEE" points="643.291,498.965 643.291,463.369 756.007,463.369 756.007,498.965 681.852,498.965 
		672.458,508.357 663.561,499.457 	"/>
	<circle fill="#FFFFFF" cx="659.738" cy="476.109" r="4.155"/>
	<path fill="#FFFFFF" d="M650.444,488.895h18.554c0,0,1.096-7.346-9.286-7.346C650.506,481.549,650.444,488.895,650.444,488.895z"/>
	<polygon fill="#FFFFFF" points="697.196,490.682 695.629,486.893 709.184,486.893 709.184,471.955 690.114,471.955 
		690.114,486.262 692.182,486.262 	"/>
	
		<line fill="#FFFFFF" stroke="#6490CB" stroke-width="0.7239" stroke-miterlimit="10" x1="692.233" y1="476.109" x2="706.322" y2="476.109"/>
	
		<line fill="#FFFFFF" stroke="#6490CB" stroke-width="0.7239" stroke-miterlimit="10" x1="692.233" y1="479.275" x2="706.322" y2="479.275"/>
	
		<line fill="#FFFFFF" stroke="#6490CB" stroke-width="0.7239" stroke-miterlimit="10" x1="692.233" y1="482.537" x2="706.322" y2="482.537"/>
	<g>
		<rect x="730.298" y="477.463" fill="#FFFFFF" width="2.58" height="8.656"/>
		<path fill="#FFFFFF" d="M746.197,478.037l-1.01,6.416c0,0.006,0,0.012,0,0.016c-0.135,1.094-0.834,1.65-2.074,1.65h-7.901
			c-0.874,0-1.584-0.711-1.584-1.584v-7.059c0.054,0,0.107,0,0.16-0.02c0.153-0.039,3.804-1.096,3.804-4.404v-2.793
			c0.39-0.055,0.992-0.064,1.44,0.26c0.433,0.318,0.644,0.92,0.644,1.801v3.338c0,0.295,0.243,0.537,0.539,0.537h4.453
			c0.331,0,0.649,0.102,0.914,0.295C746.049,476.828,746.292,477.436,746.197,478.037z"/>
	</g>
</g>
<g>
	<rect x="303.056" y="182.215" fill="#FFFFFF" width="57.047" height="36.869"/>
	<polygon fill="#DBDBDA" points="360.199,182.215 331.58,202.088 360.199,219.084 	"/>
	<polygon fill="#FFFFFF" points="303.056,182.215 331.676,202.088 303.056,219.084 	"/>
	<g>
		<path fill="#323C3E" d="M334.075,187.299c6.313,0,10.347,4.297,10.347,10.406c0,5.348-3.596,8.037-6.664,8.037
			c-1.666,0-3.039-0.818-3.361-2.221h-0.059c-0.818,1.141-2.309,1.929-3.508,1.929c-2.31,0-3.857-1.694-3.857-4.384
			c0-3.566,2.543-7.162,5.902-7.162c0.966,0,1.726,0.41,2.223,1.462h0.06l0.407-1.228h2.661l-1.345,6.432
			c-0.41,1.694,0.029,2.513,1.345,2.513c1.753,0,3.478-2.046,3.478-5.261c0-4.18-2.249-7.922-7.979-7.922
			c-4.999,0-9.939,4.268-9.939,10.844c0,5.759,3.977,8.535,8.536,8.535c1.52,0,3.216-0.496,4.442-1.14l0.936,2.338
			c-1.783,0.965-3.653,1.403-5.729,1.403c-5.846,0-11.078-3.566-11.078-11.02C320.893,192.678,326.885,187.299,334.075,187.299z
			 M331.736,202.762c0.615,0,1.199-0.352,1.93-1.316l0.701-3.945c-0.292-0.556-0.76-0.848-1.346-0.848
			c-1.752,0-2.806,2.396-2.806,4.15C330.216,202.119,330.773,202.762,331.736,202.762z"/>
	</g>
</g>
</svg>
